<svg width="32" height="23" viewBox="0 0 32 23" fill="none" xmlns="http://www.w3.org/2000/svg">
<path d="M30.15 9H1.35C0.108 9 0 10.0057 0 11.25C0 12.4943 0.108 13.5 1.35 13.5H30.15C31.392 13.5 31.5 12.4943 31.5 11.25C31.5 10.0057 31.392 9 30.15 9ZM30.15 18H1.35C0.108 18 0 19.0058 0 20.25C0 21.4942 0.108 22.5 1.35 22.5H30.15C31.392 22.5 31.5 21.4942 31.5 20.25C31.5 19.0058 31.392 18 30.15 18ZM1.35 4.5H30.15C31.392 4.5 31.5 3.49425 31.5 2.25C31.5 1.00575 31.392 0 30.15 0H1.35C0.108 0 0 1.00575 0 2.25C0 3.49425 0.108 4.5 1.35 4.5Z" fill="black"/>
</svg>
